<svg width="17" height="18" viewBox="0 0 17 18" fill="none" xmlns="http://www.w3.org/2000/svg">
<path d="M16 7.33329H1M11.8333 0.666626V3.99996M5.16667 0.666626V3.99996M5 17.3333H12C13.4001 17.3333 14.1002 17.3333 14.635 17.0608C15.1054 16.8211 15.4878 16.4387 15.7275 15.9683C16 15.4335 16 14.7334 16 13.3333V6.33329C16 4.93316 16 4.2331 15.7275 3.69832C15.4878 3.22791 15.1054 2.84546 14.635 2.60578C14.1002 2.33329 13.4001 2.33329 12 2.33329H5C3.59987 2.33329 2.8998 2.33329 2.36502 2.60578C1.89462 2.84546 1.51217 3.22791 1.27248 3.69832C1 4.2331 1 4.93316 1 6.33329V13.3333C1 14.7334 1 15.4335 1.27248 15.9683C1.51217 16.4387 1.89462 16.8211 2.36502 17.0608C2.8998 17.3333 3.59987 17.3333 5 17.3333Z" stroke="white" stroke-linecap="round" stroke-linejoin="round"/>
</svg>
